<svg width="158" height="93" viewBox="0 0 158 93" fill="none" xmlns="http://www.w3.org/2000/svg">
<g filter="url(#filter0_d_40_519)">
<path d="M4.07797 2.51688L4.14837 4.1984L6.9409 4.49514C10.6252 4.91552 12.4556 5.41008 13.1126 6.17666C14.0513 7.28943 14.1217 8.62476 14.1217 23.3875V37.4579L19.7067 37.4085L25.2683 37.3343L25.3857 22.7446C25.5265 6.10247 25.4561 6.57231 27.2865 5.63264C28.0374 5.23698 29.2577 4.96497 31.6043 4.66824C33.4113 4.44568 35.0305 4.22313 35.1947 4.17367C35.3825 4.12421 35.4763 3.55546 35.4763 2.46742V0.860081H19.7537H4.00757L4.07797 2.51688Z" fill="#1B1F3B"/>
<path d="M122.586 2.51688L122.656 4.1984L125.472 4.49514C131.057 5.11334 131.996 5.60791 132.465 8.20438C132.536 8.62476 132.629 15.153 132.629 22.7199C132.653 30.2867 132.723 36.6913 132.794 36.9634C132.911 37.4332 133.099 37.4579 138.402 37.4579H143.87L143.94 22.7941C144.034 7.33889 144.058 6.96796 145.114 6.00356C145.771 5.38535 147.038 5.06389 150.699 4.59405L153.867 4.17367L153.937 2.51688L154.008 0.860081H138.261H122.515L122.586 2.51688Z" fill="#1B1F3B"/>
<path d="M68.6808 2.49218C68.4226 2.56637 67.5778 2.78892 66.8269 2.98675C61.852 4.27261 57.3464 8.22913 55.117 13.2737C52.2541 19.7278 53.357 27.6161 58.285 35.5291L59.4818 37.4579H65.8178H72.1538L73.9373 36.4441C79.8744 33.0316 83.8637 29.9158 85.9757 27.0226C88.8621 23.0414 89.1906 15.8949 86.6797 10.6278C85.8818 8.92152 82.8781 5.85522 80.9304 4.693C78.0909 3.0362 76.1901 2.54164 72.4354 2.44273C70.6285 2.418 68.9389 2.418 68.6808 2.49218ZM72.764 6.54761C74.6882 6.89381 75.7912 7.51201 76.941 8.87207C79.405 11.8147 80.3906 16.4884 79.4754 20.9889C78.6541 25.1185 75.4626 29.9405 71.4029 33.2047L69.4786 34.7625L68.845 33.9712C67.7186 32.5865 65.5128 29.2481 64.6914 27.6903C64.2456 26.8742 63.5416 25.1433 63.1192 23.8574C62.3917 21.6071 62.3448 21.3351 62.3448 17.9226V14.337L63.213 12.4082C64.621 9.29245 67.0381 7.14109 69.7602 6.57234C71.1917 6.2756 71.0978 6.2756 72.764 6.54761Z" fill="#1B1F3B"/>
<path d="M106.181 31.894C105.5 32.0919 104.421 32.537 103.764 32.8832C102.638 33.4767 102.591 33.5508 102.591 34.5647C102.591 35.1335 102.661 36.0237 102.731 36.5182L102.896 37.4579H107.894H112.916L112.752 36.6419C112.681 36.2215 112.282 34.9109 111.883 33.7487L111.156 31.6468L109.279 31.5973C108.223 31.5726 106.862 31.6962 106.181 31.894Z" fill="#1B1F3B"/>
<path d="M11.0705 45.223C11.0705 46.6325 11.1644 47.5969 11.3052 47.5969C11.446 47.5969 11.5398 46.7067 11.5398 45.3961C11.5398 44.1597 11.446 43.0964 11.3052 43.0222C11.1644 42.9233 11.0705 43.7146 11.0705 45.223Z" fill="#1B1F3B"/>
<path d="M15.0609 43.0483C15.0609 43.6171 16.8209 47.5983 17.0321 47.5242C17.2902 47.45 18.7921 43.7902 18.8155 43.1967C18.839 42.4549 18.3462 43.2462 17.9003 44.7051C17.1259 47.079 17.1025 47.079 16.3046 44.9524C15.9291 43.9138 15.4833 42.9989 15.319 42.9494C15.1782 42.9 15.0609 42.9494 15.0609 43.0483Z" fill="#1B1F3B"/>
<path d="M23.2042 43.0716C22.9695 43.4672 21.6319 47.1023 21.6319 47.3495C21.6319 47.8688 22.0074 47.5721 22.2655 46.855C22.5002 46.212 22.641 46.1131 23.3684 46.1131C24.049 46.1131 24.2602 46.2368 24.5652 46.855C24.9172 47.5721 25.5743 47.943 25.3162 47.2754C25.2458 47.127 24.9172 46.1873 24.5652 45.2476C23.8847 43.4425 23.4154 42.7006 23.2042 43.0716ZM23.8612 44.7778C24.3071 45.9153 24.3306 45.8659 23.5092 45.8659C22.7348 45.8659 22.641 45.5938 23.0399 44.5305C23.345 43.6898 23.4388 43.7145 23.8612 44.7778Z" fill="#1B1F3B"/>
<path d="M28.883 42.9974C28.6953 43.22 28.9534 47.5969 29.1646 47.5969C29.2819 47.5969 29.3758 46.8056 29.3758 45.8165V44.036L30.5726 45.8165C31.2297 46.8056 31.8633 47.5969 31.9806 47.5969C32.2622 47.5969 32.2622 43.22 31.9571 43.0222C31.8398 42.948 31.7225 43.6157 31.6755 44.679L31.6051 46.4841L30.4787 44.8273C29.3758 43.1953 29.0473 42.8243 28.883 42.9974Z" fill="#1B1F3B"/>
<path d="M35.7098 43.1458C35.7098 43.2694 36.0383 43.3931 36.4138 43.3931H37.1178V45.495C37.1178 46.7314 37.2116 47.5969 37.3524 47.5969C37.4932 47.5969 37.5871 46.7314 37.5871 45.495V43.3931H38.2911C38.69 43.3931 38.9951 43.2694 38.9951 43.1458C38.9951 42.9974 38.2911 42.8985 37.3524 42.8985C36.4138 42.8985 35.7098 42.9974 35.7098 43.1458Z" fill="#1B1F3B"/>
<path d="M43.0803 43.1453C42.5171 43.3926 42.2589 44.1344 42.5405 44.6784C42.6344 44.8763 43.1507 45.2472 43.6904 45.4945C44.6995 45.9643 44.8872 46.5578 44.2536 47.1265C43.9251 47.3985 43.7608 47.3738 43.1741 47.0276C42.3528 46.5331 41.9304 46.7061 42.6109 47.2502C43.3149 47.7695 44.5352 47.6953 44.9341 47.0771C45.4504 46.3105 45.1453 45.6428 43.9955 45.0741C43.1976 44.6784 42.9864 44.4559 43.0333 44.0355C43.1272 43.4173 44.0189 43.1947 44.5352 43.6646C44.9107 43.986 45.3096 43.7635 44.9576 43.4173C44.6056 43.0464 43.62 42.898 43.0803 43.1453Z" fill="#1B1F3B"/>
<path d="M49.8837 43.1454C49.1093 43.4669 48.6165 44.3818 48.6165 45.4452C48.6165 47.7202 51.3151 48.4373 52.3242 46.4343C53.2629 44.6291 51.5967 42.3789 49.8837 43.1454ZM51.5498 43.8873C52.1599 44.5797 52.0895 46.3601 51.409 46.9041C50.7754 47.4729 50.4469 47.4729 49.7663 46.8794C49.3439 46.5332 49.2031 46.1623 49.2031 45.4204C49.2031 43.6895 50.5877 42.7745 51.5498 43.8873Z" fill="#1B1F3B"/>
<path d="M55.7029 43.1705C55.7733 43.3684 56.1957 44.4317 56.6181 45.5445C57.017 46.6819 57.5098 47.5969 57.6506 47.5969C57.9322 47.5969 59.4106 43.8382 59.4106 43.1458C59.4106 42.5276 59.0351 43.22 58.4719 44.8768C58.1668 45.767 57.8618 46.5583 57.7679 46.6819C57.6975 46.7809 57.2986 46.0143 56.9231 44.9757C56.5477 43.9124 56.1018 42.9974 55.9141 42.948C55.7029 42.8738 55.6325 42.948 55.7029 43.1705Z" fill="#1B1F3B"/>
<path d="M68.6336 43.1953C68.4224 43.4673 66.9205 47.2507 66.9205 47.498C66.9205 47.5474 67.0379 47.5969 67.1787 47.5969C67.296 47.5969 67.5072 47.2754 67.648 46.9045C67.8357 46.2863 68 46.1874 68.8213 46.1627C69.6896 46.1132 69.8069 46.1874 70.0416 46.855C70.1824 47.2754 70.4405 47.5969 70.6048 47.5969C70.7691 47.5969 70.6048 46.8303 70.0885 45.4455C69.1968 43.0469 68.9856 42.7254 68.6336 43.1953ZM69.2437 44.6542C69.6192 45.7917 69.5723 45.8659 68.7744 45.8659C68.2112 45.8659 68.0704 45.7917 68.1877 45.4703C68.2581 45.2477 68.3989 44.8026 68.4693 44.4811C68.6571 43.6651 68.9387 43.7393 69.2437 44.6542Z" fill="#1B1F3B"/>
<path d="M74.3595 43.0469C74.1014 43.3189 74.1718 47.5969 74.4299 47.5969C74.5473 47.5969 74.6646 46.8056 74.7115 45.8659L74.7819 44.1102L76.0257 45.8659C76.7062 46.8056 77.3398 47.5969 77.4337 47.5969C77.551 47.5969 77.5979 47.1271 77.5745 46.5336C77.5275 45.9648 77.5041 44.9015 77.5041 44.1597C77.4806 43.4178 77.4102 42.8985 77.3163 42.9727C77.2459 43.0716 77.199 43.8629 77.2225 44.7531C77.2459 45.6434 77.2225 46.3605 77.1521 46.3605C77.0817 46.3605 76.5654 45.7175 76.0257 44.951C75.4625 44.1597 74.8993 43.3931 74.7819 43.1953C74.6411 43.0222 74.4534 42.948 74.3595 43.0469Z" fill="#1B1F3B"/>
<path d="M81.4012 43.0716C81.3073 43.1458 81.2369 44.2091 81.2369 45.4208V47.5969H82.4807C83.4897 47.5969 83.8417 47.4733 84.2172 47.0281C85.2263 45.8659 85.0151 43.9124 83.8183 43.2694C83.1143 42.8985 81.6828 42.7749 81.4012 43.0716ZM83.9121 43.9371C84.358 44.6048 84.3815 46.0885 83.9591 46.6819C83.7713 46.9292 83.2551 47.2012 82.7857 47.2754L81.9409 47.4238V45.3961V43.3931H82.7388C83.3255 43.3931 83.654 43.5662 83.9121 43.9371Z" fill="#1B1F3B"/>
<path d="M92.7358 45.2477C92.7358 46.6572 92.8297 47.5969 92.9705 47.5969C93.1113 47.5969 93.2052 46.6572 93.2052 45.2477C93.2052 43.8382 93.1113 42.8985 92.9705 42.8985C92.8297 42.8985 92.7358 43.8382 92.7358 45.2477Z" fill="#1B1F3B"/>
<path d="M96.7249 42.9974C96.7249 43.5167 98.4614 47.5969 98.6961 47.5969C99.0246 47.5969 100.62 43.22 100.409 42.9727C100.245 42.8243 100.01 43.3684 99.2123 45.6928C98.9777 46.3605 98.743 46.855 98.7195 46.8056C98.6726 46.7561 98.3206 45.8906 97.9451 44.8768C97.5697 43.8629 97.1238 42.9974 96.983 42.948C96.8422 42.8985 96.7249 42.9233 96.7249 42.9974Z" fill="#1B1F3B"/>
<path d="M104.843 43.0963C104.632 43.4672 103.295 47.127 103.295 47.3495C103.295 47.8688 103.67 47.5721 103.928 46.855C104.163 46.2121 104.304 46.1131 105.031 46.1131C105.712 46.1131 105.923 46.2368 106.228 46.855C106.58 47.5721 107.213 47.943 106.979 47.2754C106.932 47.127 106.533 46.0637 106.111 44.9262C105.43 43.0468 105.125 42.6017 104.843 43.0963ZM105.524 44.7778C105.712 45.2724 105.876 45.7175 105.876 45.7669C105.876 45.8164 105.5 45.8659 105.055 45.8659C104.609 45.8659 104.233 45.8164 104.233 45.7422C104.233 45.5691 105.008 43.8876 105.101 43.8876C105.125 43.8876 105.336 44.2832 105.524 44.7778Z" fill="#1B1F3B"/>
<path d="M110.57 45.223C110.57 47.9925 110.993 48.4624 111.087 45.8412L111.157 44.0608L112.307 45.8412C112.94 46.8056 113.551 47.5969 113.668 47.5969C113.762 47.5969 113.856 46.5336 113.856 45.2477C113.856 42.5029 113.433 42.033 113.339 44.6542L113.269 46.4099L112.143 44.7779C111.509 43.8877 110.899 43.0963 110.782 43.0222C110.664 42.9233 110.57 43.8382 110.57 45.223Z" fill="#1B1F3B"/>
<path d="M117.258 43.1458C117.164 43.2942 117.446 43.3931 117.939 43.3931H118.783V45.495C118.783 46.7314 118.877 47.5969 119.018 47.5969C119.159 47.5969 119.253 46.7314 119.253 45.495V43.3931H119.957C120.356 43.3931 120.661 43.2694 120.661 43.1458C120.661 42.9974 119.957 42.8985 119.042 42.8985C118.126 42.8985 117.328 42.9974 117.258 43.1458Z" fill="#1B1F3B"/>
<path d="M124.718 43.1953C124.342 43.3931 124.178 43.6898 124.178 44.1844C124.178 44.7779 124.342 44.9757 125.234 45.4208C125.797 45.7175 126.313 46.0885 126.384 46.2368C126.642 47.0034 125.375 47.5969 124.788 46.9787C124.577 46.7561 124.295 46.6572 124.155 46.7561C123.709 47.0281 124.624 47.5969 125.469 47.5969C126.407 47.5969 127.111 46.855 126.877 46.1132C126.783 45.7917 126.29 45.3961 125.656 45.0993C124.812 44.7284 124.624 44.5306 124.694 44.0855C124.788 43.4178 125.656 43.1953 126.196 43.6651C126.384 43.8135 126.619 43.8877 126.712 43.7887C126.924 43.5415 126.079 42.8985 125.609 42.9233C125.398 42.9233 124.999 43.0469 124.718 43.1953Z" fill="#1B1F3B"/>
<path d="M131.688 43.071C130.538 43.5161 129.998 45.0493 130.515 46.3846C131.172 48.0166 133.19 48.0661 133.988 46.434C134.903 44.6536 133.354 42.4281 131.688 43.071ZM133.143 43.8128C133.964 44.5794 133.589 46.9781 132.627 47.1017C131.735 47.2253 131.406 47.0522 131.101 46.2857C130.35 44.4063 131.852 42.5764 133.143 43.8128Z" fill="#1B1F3B"/>
<path d="M137.51 43.0222C137.299 43.2447 139.059 47.5969 139.341 47.5969C139.599 47.5969 141.101 43.8629 141.077 43.3189C141.054 42.7996 140.725 43.2447 140.373 44.308C140.139 44.951 139.834 45.8165 139.669 46.2368L139.388 46.9787L138.707 45.1488C138.027 43.2942 137.745 42.7749 137.51 43.0222Z" fill="#1B1F3B"/>
<path d="M145.653 43.0961C145.442 43.2444 144.878 44.654 143.987 47.1515C143.916 47.3988 143.94 47.5966 144.081 47.5966C144.221 47.5966 144.433 47.2504 144.573 46.8548C144.785 46.1871 144.902 46.1129 145.77 46.1129C146.638 46.1129 146.756 46.1871 146.967 46.8548C147.202 47.5224 147.647 47.8934 147.647 47.3988C147.647 47.1268 146.216 43.2939 146.028 43.0961C145.958 42.9972 145.77 42.9972 145.653 43.0961ZM146.122 44.6292C146.615 45.6431 146.568 45.8656 145.77 45.8656C145.395 45.8656 145.066 45.7915 145.066 45.6925C145.066 45.47 145.606 43.8874 145.7 43.8874C145.723 43.8874 145.911 44.2089 146.122 44.6292Z" fill="#1B1F3B"/>
<path d="M14.239 53.8288C14.1921 54.0019 14.0982 58.997 14.0748 64.907C14.0044 76.6282 13.9574 76.9744 12.6198 77.8893C11.9628 78.3344 9.17023 78.9032 6.14303 79.1752L4.14837 79.373L4.07797 81.0298L4.00757 82.7113H19.7537H35.4763V81.104C35.4763 80.016 35.3825 79.4472 35.1947 79.3978C35.0305 79.3483 33.4113 79.1257 31.6043 78.9032C27.3569 78.3839 26.3713 77.9141 25.8081 76.1584C25.4561 75.0703 25.4091 73.6608 25.3857 64.3877C25.3857 55.5845 25.3387 53.804 25.0571 53.7051C24.8694 53.6309 22.4054 53.5568 19.5425 53.532C15.5062 53.532 14.3329 53.5815 14.239 53.8288Z" fill="#1B1F3B"/>
<path d="M45.9192 54.2988C45.1683 55.8072 44.6285 59.0219 44.6285 61.9893C44.6285 65.3771 45.0275 67.7757 46.0131 70.5205C49.6739 80.4613 61.8061 85.9757 74.7831 83.5771C79.9927 82.6127 86.0236 79.5216 90.9751 75.3178C91.6321 74.7491 92.2657 74.304 92.3831 74.304C92.5239 74.304 93.6737 75.1447 94.9644 76.1833C97.8742 78.5325 99.3292 79.398 102.004 80.5355C105.266 81.8956 109.162 82.7611 114.606 83.3545C115.474 83.4287 116.272 83.5276 116.366 83.5524C116.46 83.5524 116.648 82.9341 116.812 82.1428C117.07 80.7086 117.07 80.6839 116.46 80.4366C114.254 79.4722 112.611 78.582 111.062 77.4692C108.364 75.5651 104.398 72.2515 101.77 69.754C100.479 68.5176 99.2118 67.3059 98.9772 67.0833C98.5313 66.6629 98.5313 66.6135 99.47 65.476C102.708 61.3958 107.519 54.4224 107.519 53.8042C107.519 53.6311 106.463 53.5569 104.328 53.6064C101.746 53.6559 101.089 53.73 100.925 54.0268C100.808 54.2246 100.409 55.2385 99.9862 56.2523C98.8364 59.1455 96.1612 63.5472 95.5511 63.5472C95.3399 63.5472 93.8145 62.014 88.2529 56.3265L85.5308 53.5322L79.054 53.5569C75.4636 53.5569 72.5538 53.6559 72.5538 53.7548C72.5538 54.0021 84.1698 66.1436 86.9153 68.7648C88.1825 69.9765 89.2151 71.0646 89.2151 71.2129C89.1916 71.4602 88.5815 71.9548 86.1409 73.7352C84.4983 74.9222 81.0956 76.6532 79.2418 77.2466C74.2434 78.8045 68.893 78.6067 64.8802 76.6779C60.8909 74.7491 57.4178 70.2733 56.1506 65.4018C55.4701 62.8548 55.2824 58.4779 55.7282 55.8814C55.916 54.7934 56.0098 53.8042 55.9629 53.7053C55.8925 53.6064 53.6866 53.5322 51.0584 53.5569L46.2477 53.5817L45.9192 54.2988Z" fill="#1B1F3B"/>
<path d="M132.935 53.7298C132.723 53.8535 132.653 56.6972 132.653 64.363C132.653 71.2622 132.559 75.1445 132.395 75.8369C131.832 78.013 130.705 78.5323 125.355 79.101L122.656 79.373L122.586 81.0545L122.515 82.7113H138.261H154.008L153.937 81.0298L153.867 79.373L152.341 79.1999C146.404 78.557 145.137 78.1119 144.457 76.5045C144.058 75.5154 144.011 74.5263 143.893 64.5361L143.776 53.6556L138.496 53.6062C135.586 53.5815 133.075 53.6309 132.935 53.7298Z" fill="#1B1F3B"/>
</g>
<defs>
<filter id="filter0_d_40_519" x="0.00756836" y="0.860107" width="158" height="91.2751" filterUnits="userSpaceOnUse" color-interpolation-filters="sRGB">
<feFlood flood-opacity="0" result="BackgroundImageFix"/>
<feColorMatrix in="SourceAlpha" type="matrix" values="0 0 0 0 0 0 0 0 0 0 0 0 0 0 0 0 0 0 127 0" result="hardAlpha"/>
<feOffset dy="4"/>
<feGaussianBlur stdDeviation="2"/>
<feComposite in2="hardAlpha" operator="out"/>
<feColorMatrix type="matrix" values="0 0 0 0 0 0 0 0 0 0 0 0 0 0 0 0 0 0 0.25 0"/>
<feBlend mode="normal" in2="BackgroundImageFix" result="effect1_dropShadow_40_519"/>
<feBlend mode="normal" in="SourceGraphic" in2="effect1_dropShadow_40_519" result="shape"/>
</filter>
</defs>
</svg>
