<svg width="40" height="40" viewBox="0 0 40 40" fill="none" xmlns="http://www.w3.org/2000/svg">
<path d="M20 11.6664C22.2102 11.6664 24.3299 12.5444 25.8928 14.1073C27.4556 15.6701 28.3336 17.7898 28.3336 20M18.3336 5.10001C18.8865 5.03259 19.443 4.99919 20 5.00001C23.9783 5.00001 27.7936 6.58037 30.6066 9.39341C33.4197 12.2065 35 16.0218 35 20C35 20.5573 34.9667 21.1128 34.9 21.6664" stroke="#344054" stroke-width="1.6" stroke-linecap="round" stroke-linejoin="round"/>
<path d="M25.0001 35.0001C22.4164 34.3841 19.9657 33.3053 17.7665 31.8161L20.8001 27.4673C21.2988 26.7867 22.0371 26.3206 22.866 26.1629C23.6948 26.0053 24.5527 26.1678 25.2665 26.6177C25.8169 26.9673 26.3833 27.2841 26.9337 27.6009C27.3476 27.8033 27.7152 28.0894 28.013 28.441C28.3109 28.7927 28.5326 29.2023 28.6641 29.6439C28.7957 30.0856 28.8342 30.5497 28.7773 31.007C28.7205 31.4643 28.5694 31.9049 28.3337 32.3009L27.3001 33.8849C27.115 34.3164 26.7806 34.6668 26.3582 34.8718C25.9357 35.0767 25.4536 35.1218 25.0001 35.0001ZM6.11686 12.7841L7.78326 11.7497C8.16979 11.4988 8.60413 11.3308 9.05886 11.2563C9.51359 11.1818 9.97883 11.2023 10.4252 11.3167C10.8716 11.431 11.2894 11.6366 11.6523 11.9206C12.0152 12.2046 12.3153 12.5607 12.5337 12.9665C12.8505 13.5665 13.1665 14.1337 13.5169 14.6337C13.9667 15.3475 14.1291 16.2054 13.9712 17.0343C13.8134 17.8632 13.3471 18.6014 12.6665 19.1001L8.23366 22.1833C6.7324 20.0029 5.63698 17.5695 5.00006 15.0001C4.90038 14.5585 4.95728 14.096 5.16101 13.6918C5.36474 13.2875 5.70263 12.9666 6.11686 12.7841Z" stroke="#005EC8" stroke-width="1.6" stroke-linecap="round" stroke-linejoin="round"/>
<path d="M8.23364 22.1841C9.45894 24.1045 10.9018 25.877 12.5336 27.4665C14.1234 29.0984 15.8962 30.5412 17.8168 31.7665" stroke="#005EC8" stroke-width="1.6" stroke-linecap="round" stroke-linejoin="round"/>
</svg>
